<svg xmlns="http://www.w3.org/2000/svg" class="hide"><defs><style>.cls-1{fill:#1d1d1b}</style><style>.cls-1{fill:#1d1d1b}</style><style>.cls-1{fill:#1d1d1b}</style><style>.cls-1{fill:#1d1d1b}</style><style>.cls-1{fill:#1d1d1b}</style><style>.cls-1{fill:#1d1d1b}</style></defs><symbol id="alert" viewBox="0 0 32 32"><title>alert</title><g id="alert"><path class="cls-1" d="M16 21a1 1 0 0 1-1-1v-7a1 1 0 0 1 2 0v7a1 1 0 0 1-1 1z"/><circle class="cls-1" cx="16" cy="23" r="1"/><path class="cls-1" d="M29 28H3a1 1 0 0 1-.87-1.48l13-23.44a1 1 0 0 1 1.75 0l13 23.44A1 1 0 0 1 29 28zM4.7 26h22.6L16 5.62z"/></g></symbol><symbol id="caret" viewBox="0 0 32 32"><title>caret</title><path class="cls-1" d="M16 23a1 1 0 0 1-.64-.23l-12-10a1 1 0 0 1 1.28-1.54L16 20.7l11.36-9.47a1 1 0 0 1 1.28 1.54l-12 10A1 1 0 0 1 16 23z"/></symbol><symbol id="clock" viewBox="0 0 32 32"><title>clock</title><g id="clock"><path class="cls-1" d="M16 29a13 13 0 1 1 13-13 13 13 0 0 1-13 13zm0-24a11 11 0 1 0 11 11A11 11 0 0 0 16 5z"/><path class="cls-1" d="M16 20a1 1 0 0 1-1-1V8a1 1 0 0 1 2 0v8.83l5.35-4.58a1 1 0 0 1 1.3 1.52l-7 6A1 1 0 0 1 16 20z"/></g></symbol><symbol id="pencil" viewBox="0 0 32 32"><title>pencil</title><g id="pencil"><path class="cls-1" transform="rotate(-45 9.72 22.284)" d="M8.71 18.95h2v6.67h-2z"/><path class="cls-1" transform="rotate(-45 21.627 10.472)" d="M20.63 7.52h2v5.9h-2z"/><path class="cls-1" d="M5 28a1 1 0 0 1-1-1.24l1.6-6.29a1 1 0 0 1 .26-.47L21.58 4.29a1 1 0 0 1 .71-.29 1 1 0 0 1 .71.29L27.71 9a1 1 0 0 1 0 1.41L12 26.14a1 1 0 0 1-.46.26L5.24 28A1 1 0 0 1 5 28zm2.47-6.77l-1.1 4.4 4.4-1.1L25.59 9.71l-3.3-3.3z"/></g></symbol><symbol id="plus" viewBox="0 0 32 32"><title>plus</title><g id="add"><path class="cls-1" d="M16 27a1 1 0 0 1-1-1V6a1 1 0 0 1 2 0v20a1 1 0 0 1-1 1z"/><path class="cls-1" d="M26 17H6a1 1 0 0 1 0-2h20a1 1 0 0 1 0 2z"/></g></symbol><symbol id="x" viewBox="0 0 32 32"><title>x</title><g id="close"><path class="cls-1" d="M24 25a1 1 0 0 1-.71-.29l-16-16a1 1 0 0 1 1.42-1.42l16 16A1 1 0 0 1 24 25z"/><path class="cls-1" d="M8 25a1 1 0 0 1-.71-1.71l16-16A1 1 0 0 1 24.7 8.7l-16 16a1 1 0 0 1-.7.3z"/></g></symbol></svg>