<svg xmlns="http://www.w3.org/2000/svg" class="hide"><defs><style>.cls-1{fill:#1d1d1b}</style><style>.cls-1{fill:#1d1d1b}</style><style>.cls-1{fill:#1d1d1b}</style><style>.cls-1{fill:#1d1d1b}.cls-2{fill:#0c0808}</style><style>.cls-1{fill:#1d1d1b}</style><style>.cls-1{fill:#1d1d1b}</style><style>.cls-1{fill:#1d1d1b}</style><style>.cls-1{fill:#1d1d1b}</style><style>.cls-1{fill:#1d1d1b}</style></defs><symbol id="alert" viewBox="0 0 32 32"><title>alert</title><g id="alert"><path class="cls-1" d="M15 12h2v7h-2zM15 21h2v2h-2z"/><path class="cls-1" d="M29 28H3a1 1 0 0 1-.87-1.48l13-23.44a1 1 0 0 1 1.75 0l13 23.44A1 1 0 0 1 29 28zM4.7 26h22.6L16 5.62z"/></g></symbol><symbol id="caret" viewBox="0 0 32 32"><title>caret</title><path class="cls-1" d="M16 25a2 2 0 0 1-1.41-.59l-12-12 2.82-2.82L16 20.17 26.59 9.59l2.83 2.83-12 12A2 2 0 0 1 16 25z"/></symbol><symbol id="clock" viewBox="0 0 32 32"><title>clock</title><g id="clock"><path class="cls-1" d="M16 29a13 13 0 1 1 13-13 13 13 0 0 1-13 13zm0-24a11 11 0 1 0 11 11A11 11 0 0 0 16 5z"/><path class="cls-1" d="M16 20a1 1 0 0 1-1-1V9h2v7.59l3.29-3.29 1.41 1.41-5 5a1 1 0 0 1-.7.29z"/></g></symbol><symbol id="dashboard" viewBox="0 0 32 32"><title>dashboard</title><g id="dashboard"><path class="cls-1" d="M5.19 22a11 11 0 1 1 21.62 0h2a13 13 0 1 0-25.64 0z"/><path class="cls-1" d="M15.5 10h1v2h-1zM6 19.5h2v1H6z"/><path class="cls-1" transform="rotate(-60.01 7.997 16.002)" d="M7.5 15h1v2h-1z"/><path class="cls-1" transform="rotate(-29.99 11 13.01)" d="M10.5 12h1v2h-1z"/><path class="cls-1" transform="rotate(-29.99 23.644 15.996)" d="M22.63 15.5h2v1h-2z"/><path class="cls-1" d="M23 19.5h2v1h-2z"/><path class="cls-2" d="M20.95 12a1 1 0 0 0-1.25.19L15 16.85A3 3 0 1 0 17.91 19l3.2-5.74a1 1 0 0 0-.16-1.26zm-6.13 9a1 1 0 1 1 1.16-.8 1 1 0 0 1-1.16.8z"/></g></symbol><symbol id="pencil" viewBox="0 0 32 32"><title>pencil</title><g id="pencil"><path class="cls-1" transform="rotate(-45 9.72 22.284)" d="M8.71 18.95h2v6.67h-2z"/><path class="cls-1" transform="rotate(-45 21.627 10.472)" d="M20.63 7.52h2v5.9h-2z"/><path class="cls-1" d="M5 28a1 1 0 0 1-1-1.24l1.6-6.29a1 1 0 0 1 .26-.47L21.58 4.29a1 1 0 0 1 .71-.29 1 1 0 0 1 .71.29L27.71 9a1 1 0 0 1 0 1.41L12 26.14a1 1 0 0 1-.46.26L5.24 28A1 1 0 0 1 5 28zm2.47-6.77l-1.1 4.4 4.4-1.1L25.59 9.71l-3.3-3.3z"/></g></symbol><symbol id="people" viewBox="0 0 32 32"><title>people</title><g id="person_copy" data-name="person copy"><path class="cls-1" d="M21 12a4.5 4.5 0 1 1 4.5-4.5A4.5 4.5 0 0 1 21 12zm0-8a3.5 3.5 0 1 0 3.5 3.5A3.5 3.5 0 0 0 21 4zM11 18.5a4.5 4.5 0 1 1 4.5-4.5 4.5 4.5 0 0 1-4.5 4.5zm0-8a3.5 3.5 0 1 0 3.5 3.5 3.5 3.5 0 0 0-3.5-3.5z"/><path class="cls-1" d="M18.5 28.5h-15V20a4.48 4.48 0 0 1 4-4.45h.32l.16.27a3.47 3.47 0 0 0 6 0l.16-.27h.32a4.48 4.48 0 0 1 4 4.45zm-14-1h13V20a3.48 3.48 0 0 0-2.83-3.42 4.47 4.47 0 0 1-7.33 0A3.48 3.48 0 0 0 4.5 20z"/><path class="cls-1" d="M28.5 22h-11v-2a3.48 3.48 0 0 0-3.13-3.46l-.78-.08.41-.67a3.44 3.44 0 0 0 .5-1.79 3.48 3.48 0 0 0-.55-1.87l-.15-.23.11-.25A4.52 4.52 0 0 1 17.53 9h.32l.16.27a3.47 3.47 0 0 0 6 0l.15-.27h.32a4.48 4.48 0 0 1 4 4.45zm-10-1h9v-7.5a3.48 3.48 0 0 0-2.83-3.42 4.47 4.47 0 0 1-7.33 0 3.52 3.52 0 0 0-2.4 1.75A4.46 4.46 0 0 1 15.5 14a4.4 4.4 0 0 1-.33 1.67A4.48 4.48 0 0 1 18.5 20z"/><path class="cls-1" d="M14.41 16.9l-.76-.65.11-.13.2-.28.84.54c-.08.12-.16.24-.25.35z"/></g></symbol><symbol id="plus" viewBox="0 0 32 32"><title>plus</title><g id="add"><path class="cls-1" d="M14 4h4v24h-4z"/><path class="cls-1" d="M4 14h24v4H4z"/></g></symbol><symbol id="projects" viewBox="0 0 32 32"><title>projects</title><g id="projects_copy_2" data-name="projects copy 2"><g id="brush_copy_2" data-name="brush copy 2"><path class="cls-1" d="M24.72 14.53l-6.25-6.25 4.12-5.78 7.91 7.91zm-5-6.36l5.06 5.06L29 10.28 22.72 4z"/><path class="cls-1" transform="rotate(-45 26.546 9.284)" d="M25.05 8.78h3v1h-3z"/><path class="cls-1" transform="rotate(-45 25.139 7.867)" d="M23.63 7.37h3v1h-3z"/><path class="cls-1" transform="rotate(-45 23.715 6.457)" d="M22.22 5.95h3v1h-3z"/></g><path class="cls-1" d="M23 28.05L11.32 15.4A4.52 4.52 0 0 1 6 14.6l-1.37-1.41A4.47 4.47 0 0 1 4 7.6l.35-.55 2.49 2.67 2.22.11-.11-2.22-2.67-2.47.55-.35a4.47 4.47 0 0 1 5.58.62l1.41 1.41a4.53 4.53 0 0 1 .8 5.27l12.66 11.69zM11.5 14.12L23 26.61l2.8-2.8-12.46-11.54.23-.35a3.52 3.52 0 0 0-.45-4.39l-1.41-1.41A3.47 3.47 0 0 0 8 5.33l2 1.82.18 3.73-3.8-.18-1.82-2a3.47 3.47 0 0 0 .78 3.74l1.41 1.41a3.52 3.52 0 0 0 4.39.45z"/><path class="cls-1" d="M19 17.51l-3.68-3.4L17 12.43a2.5 2.5 0 0 1 .32-3.15l1.77-1.77 6.36 6.36-1.77 1.77a2.48 2.48 0 0 1-1.77.73 2.48 2.48 0 0 1-1.34-.37zm-2.23-3.42l2.21 2 1.54-1.54.35.35a1.49 1.49 0 0 0 1.06.44 1.49 1.49 0 0 0 1.07-.4l1.06-1.06-5-5-1 1.12a1.5 1.5 0 0 0 0 2.12l.35.35zM9.22 27.31l-3.53-3.53 7.66-7.66 3.4 3.68zM7.1 23.78l2.12 2.12 6.13-6.13-2-2.21z"/></g></symbol><symbol id="x" viewBox="0 0 32 32"><title>x</title><g id="close"><path class="cls-1" transform="rotate(-45 15.999 16.003)" d="M14 1.86h4v28.28h-4z"/><path class="cls-1" transform="rotate(-45 15.999 16.003)" d="M1.86 14h28.28v4H1.86z"/></g></symbol></svg>