<svg xmlns="http://www.w3.org/2000/svg" class="hide"><defs><style>.cls-1{fill:#1d1d1b}</style><style>.cls-1{fill:#1d1d1b}</style><style>.cls-1{fill:#1d1d1b}</style><style>.cls-1{fill:#1d1d1b}.cls-2{fill:#0c0808}</style><style>.cls-1{fill:#1d1d1b}</style><style>.cls-1{fill:#1d1d1b}</style><style>.cls-1{fill:#1d1d1b}</style></defs><symbol id="alert" viewBox="0 0 32 32"><title>alert</title><g id="alert"><path class="cls-1" d="M15 12h2v7h-2zM15 21h2v2h-2z"/><path class="cls-1" d="M29 28H3a1 1 0 0 1-.87-1.48l13-23.44a1 1 0 0 1 1.75 0l13 23.44A1 1 0 0 1 29 28zM4.7 26h22.6L16 5.62z"/></g></symbol><symbol id="caret" viewBox="0 0 32 32"><title>caret</title><path class="cls-1" d="M16 25a2 2 0 0 1-1.41-.59l-12-12 2.82-2.82L16 20.17 26.59 9.59l2.83 2.83-12 12A2 2 0 0 1 16 25z"/></symbol><symbol id="clock" viewBox="0 0 32 32"><title>clock</title><g id="clock"><path class="cls-1" d="M16 29a13 13 0 1 1 13-13 13 13 0 0 1-13 13zm0-24a11 11 0 1 0 11 11A11 11 0 0 0 16 5z"/><path class="cls-1" d="M16 20a1 1 0 0 1-1-1V9h2v7.59l3.29-3.29 1.41 1.41-5 5a1 1 0 0 1-.7.29z"/></g></symbol><symbol id="dashboard" viewBox="0 0 32 32"><title>dashboard</title><g id="dashboard"><path class="cls-1" d="M5.19 22a11 11 0 1 1 21.62 0h2a13 13 0 1 0-25.64 0z"/><path class="cls-1" d="M15.5 10h1v2h-1zM6 19.5h2v1H6z"/><path class="cls-1" transform="rotate(-60.01 7.997 16.002)" d="M7.5 15h1v2h-1z"/><path class="cls-1" transform="rotate(-29.99 11 13.01)" d="M10.5 12h1v2h-1z"/><path class="cls-1" transform="rotate(-29.99 23.644 15.996)" d="M22.63 15.5h2v1h-2z"/><path class="cls-1" d="M23 19.5h2v1h-2z"/><path class="cls-2" d="M20.95 12a1 1 0 0 0-1.25.19L15 16.85A3 3 0 1 0 17.91 19l3.2-5.74a1 1 0 0 0-.16-1.26zm-6.13 9a1 1 0 1 1 1.16-.8 1 1 0 0 1-1.16.8z"/></g></symbol><symbol id="pencil" viewBox="0 0 32 32"><title>pencil</title><g id="pencil"><path class="cls-1" transform="rotate(-45 9.72 22.284)" d="M8.71 18.95h2v6.67h-2z"/><path class="cls-1" transform="rotate(-45 21.627 10.472)" d="M20.63 7.52h2v5.9h-2z"/><path class="cls-1" d="M5 28a1 1 0 0 1-1-1.24l1.6-6.29a1 1 0 0 1 .26-.47L21.58 4.29a1 1 0 0 1 .71-.29 1 1 0 0 1 .71.29L27.71 9a1 1 0 0 1 0 1.41L12 26.14a1 1 0 0 1-.46.26L5.24 28A1 1 0 0 1 5 28zm2.47-6.77l-1.1 4.4 4.4-1.1L25.59 9.71l-3.3-3.3z"/></g></symbol><symbol id="plus" viewBox="0 0 32 32"><title>plus</title><g id="add"><path class="cls-1" d="M14 4h4v24h-4z"/><path class="cls-1" d="M4 14h24v4H4z"/></g></symbol><symbol id="x" viewBox="0 0 32 32"><title>x</title><g id="close"><path class="cls-1" transform="rotate(-45 15.999 16.003)" d="M14 1.86h4v28.28h-4z"/><path class="cls-1" transform="rotate(-45 15.999 16.003)" d="M1.86 14h28.28v4H1.86z"/></g></symbol></svg>