<svg xmlns="http://www.w3.org/2000/svg" class="hide"><defs><style>.cls-1{fill:#1d1d1b}</style><style>.cls-1{fill:#1d1d1b}</style><style>.cls-1{fill:#1d1d1b}</style><style>.cls-1{fill:#1d1d1b}</style><style>.cls-1{fill:#1d1d1b}</style><style>.cls-1{fill:#1d1d1b}</style><style>.cls-1{fill:#1d1d1b}</style><style>.cls-1{fill:#1d1d1b}</style><style>.cls-1{fill:#1d1d1b}</style><style>.cls-1{fill:#1d1d1b}</style></defs><symbol id="alert" viewBox="0 0 32 32"><title>alert</title><g id="alert"><path class="cls-1" d="M15 12h2v7h-2zM15 21h2v2h-2z"/><path class="cls-1" d="M29 28H3a1 1 0 0 1-.87-1.48l13-23.44a1 1 0 0 1 1.75 0l13 23.44A1 1 0 0 1 29 28zM4.7 26h22.6L16 5.62z"/></g></symbol><symbol id="caret" viewBox="0 0 32 32"><title>caret</title><path class="cls-1" d="M16 25a2 2 0 0 1-1.41-.59l-12-12 2.82-2.82L16 20.17 26.59 9.59l2.83 2.83-12 12A2 2 0 0 1 16 25z"/></symbol><symbol id="clock" viewBox="0 0 32 32"><title>clock</title><g id="clock"><path class="cls-1" d="M16 29a13 13 0 1 1 13-13 13 13 0 0 1-13 13zm0-24a11 11 0 1 0 11 11A11 11 0 0 0 16 5z"/><path class="cls-1" d="M16 20a1 1 0 0 1-1-1V9h2v7.59l3.29-3.29 1.41 1.41-5 5a1 1 0 0 1-.7.29z"/></g></symbol><symbol id="dashboard" viewBox="0 0 48 48"><title>dashboard</title><g id="dashboard_copy_2" data-name="dashboard copy 2"><path class="cls-1" d="M24 45a21 21 0 1 1 21-21 21 21 0 0 1-21 21zm0-40a19 19 0 1 0 19 19A19 19 0 0 0 24 5z"/><path class="cls-1" d="M23 5h2v4h-2zM23 39h2v4h-2zM5 23h4v2H5zM39 23h4v2h-4z"/><path class="cls-1" transform="rotate(-30 15.496 9.272)" d="M14.5 7.28h2v4h-2z"/><path class="cls-1" transform="rotate(-30 32.503 38.729)" d="M31.5 36.72h2v4h-2z"/><path class="cls-1" transform="rotate(-29.99 9.281 32.495)" d="M7.28 31.5h4v2h-4z"/><path class="cls-1" transform="rotate(-29.99 38.723 15.494)" d="M36.72 14.5h4v2h-4z"/><path class="cls-1" transform="rotate(-60 9.285 15.499)" d="M8.28 13.5h2v4h-2z"/><path class="cls-1" transform="rotate(-60 38.73 32.499)" d="M37.72 30.5h2v4h-2z"/><path class="cls-1" transform="rotate(-60.01 15.501 38.717)" d="M13.5 37.72h4v2h-4z"/><path class="cls-1" transform="rotate(-60.01 32.501 9.278)" d="M30.5 8.28h4v2h-4z"/><path class="cls-1" d="M24.82 27.68A4 4 0 0 1 22 20.85a4 4 0 0 1 1.37-.85l9.42-5.62a1 1 0 0 1 1.37 1.37l-5.62 9.42a4 4 0 0 1-3.72 2.55zm5.59-9.59l-6.09 3.64-.18.08a2 2 0 0 0-.74.46 2 2 0 1 0 3.29 2.09 1 1 0 0 1 .08-.18z" id="needle_copy_3" data-name="needle copy 3"/></g></symbol><symbol id="organizations" viewBox="0 0 48 48"><title>organizations</title><path class="cls-1" d="M39 34h-.1l-.9-8.11a1 1 0 0 0-1-.89H25v-3h6a1 1 0 0 0 1-1V7a1 1 0 0 0-1-1H17a1 1 0 0 0-1 1v14a1 1 0 0 0 1 1h6v3H11a1 1 0 0 0-1 .89L9.1 34H9a5 5 0 1 0 2.07.46L11.9 27H23v7.1a5 5 0 1 0 2 0V27h11.1l.83 7.46A5 5 0 1 0 39 34zM18 20V8h12v12H18zm-6 19a3 3 0 1 1-3-3 3 3 0 0 1 3 3zm15 0a3 3 0 1 1-3-3 3 3 0 0 1 3 3zm12 3a3 3 0 1 1 3-3 3 3 0 0 1-3 3z" id="organizations_copy_2" data-name="organizations copy 2"/></symbol><symbol id="pencil" viewBox="0 0 32 32"><title>pencil</title><g id="pencil"><path class="cls-1" transform="rotate(-45 9.72 22.284)" d="M8.71 18.95h2v6.67h-2z"/><path class="cls-1" transform="rotate(-45 21.627 10.472)" d="M20.63 7.52h2v5.9h-2z"/><path class="cls-1" d="M5 28a1 1 0 0 1-1-1.24l1.6-6.29a1 1 0 0 1 .26-.47L21.58 4.29a1 1 0 0 1 .71-.29 1 1 0 0 1 .71.29L27.71 9a1 1 0 0 1 0 1.41L12 26.14a1 1 0 0 1-.46.26L5.24 28A1 1 0 0 1 5 28zm2.47-6.77l-1.1 4.4 4.4-1.1L25.59 9.71l-3.3-3.3z"/></g></symbol><symbol id="people" viewBox="0 0 48 48"><title>people</title><g id="people_straight_copy" data-name="people straight copy"><path class="cls-1" transform="rotate(-80.54 8.497 29.999)" d="M5.46 29h6.08v2H5.46z"/><path class="cls-1" transform="rotate(-9.46 39.5 29.978)" d="M38.5 26.96h2v6.08h-2z"/><path class="cls-1" d="M45 23.94c0-3.46-3.31-4.24-5.94-4.87h-.2a7 7 0 1 0-9.73 0h-.18a7 7 0 0 0-9.91 0h-.18a7 7 0 1 0-9.73 0h-.2C6.31 19.7 3 20.48 3 23.94l-1 8.95 2 .22 1-9A1 1 0 0 0 5 24c0-1.74 1.41-2.27 4.4-3 .79-.19 1.6-.38 2.36-.64a1 1 0 0 0 .11-1.85 5 5 0 1 1 4.25 0 1 1 0 0 0 .11 1.85c.5.17 1 .31 1.54.44A7 7 0 0 0 17 24a7 7 0 0 0 2.13 5h-.2c-2.63.63-5.9 1.42-5.94 4.87l-1 8.95 2 .22 1-9A1 1 0 0 0 15 34c0-1.74 1.41-2.27 4.4-3 .79-.19 1.6-.38 2.36-.64a1 1 0 0 0 .11-1.85 5 5 0 1 1 4.25 0 1 1 0 0 0 .11 1.85c.76.26 1.58.45 2.36.64 3 .72 4.4 1.25 4.4 3a1 1 0 0 0 0 .11l1 9 2-.22-1-8.95c0-3.46-3.31-4.24-5.94-4.87h-.2A7 7 0 0 0 31 24a7 7 0 0 0-.78-3.19c.52-.13 1-.27 1.54-.44a1 1 0 0 0 .11-1.85 5 5 0 1 1 4.25 0 1 1 0 0 0 .11 1.85c.76.26 1.58.45 2.36.64 3 .72 4.4 1.25 4.4 3a1 1 0 0 0 0 .11l1 9 2-.22z"/><path class="cls-1" transform="rotate(-80.54 18.496 40)" d="M15.46 39h6.08v2h-6.08z"/><path class="cls-1" transform="rotate(-9.46 29.486 39.98)" d="M28.5 36.96h2v6.08h-2z"/></g></symbol><symbol id="plus" viewBox="0 0 32 32"><title>plus</title><g id="add"><path class="cls-1" d="M14 4h4v24h-4z"/><path class="cls-1" d="M4 14h24v4H4z"/></g></symbol><symbol id="projects" viewBox="0 0 48 48"><title>projects</title><path class="cls-1" d="M34.29 26.24a1 1 0 0 0 1-.24l2.79-2.79 7-5.62a1 1 0 0 0 .08-1.49L33.9 4.79a1 1 0 0 0-1.49.08l-5.62 7L24 14.69a1 1 0 0 0-.24 1L25 19.34l-.81.75-2.19-2.2.6-3a1 1 0 0 0-.09-.64l-2.86-5.67a1 1 0 0 0-.58-.5L12.71 6a1 1 0 0 0-1 .24L8.86 9A1 1 0 0 0 9 10.55l4.53 3.24v2.73h-2.74L7.55 12A1 1 0 0 0 6 11.86l-2.8 2.83a1 1 0 0 0-.24 1l2.12 6.36a1 1 0 0 0 .5.58l5.66 2.83a1 1 0 0 0 .64.09l3-.6 1.94 1.94-11.18 10.4a1 1 0 0 0 0 1.44l5.66 5.66a1 1 0 0 0 .71.29 1 1 0 0 0 .71-.32L23.1 33.17l11.21 11.21a1 1 0 0 0 1.41 0l5.66-5.66a1 1 0 0 0 0-1.41L29.91 25.84l.75-.81zM33.28 7l1.33 1.33-2.83 2.83 1.41 1.41L36 9.74l1.41 1.41-2.8 2.85L36 15.39l2.83-2.83L40.26 14l-2.83 2.83 1.41 1.41 2.83-2.83L43 16.72l-5.5 4.4-8.63-8.63zM12 42.24L7.76 38l10.48-9.73 3.44 3.44zm23.07 0L23.78 31 19 26.22l-3-3a1 1 0 0 0-.71-.29h-.2l-3.2.64L6.85 21l-1.8-5.34 1.56-1.56 2.85 4a1 1 0 0 0 .81.42h4.24a1 1 0 0 0 1-1v-4.25a1 1 0 0 0-.42-.81l-4-2.85 1.56-1.56L18 9.85l2.49 5L19.9 18a1 1 0 0 0 .27.9l3.26 3.26 4.38 4.38L39.26 38zM29.63 23.2l-1.14 1.22-2.92-2.92 1.22-1.14a1 1 0 0 0 .27-1l-1.22-3.66 1.7-1.7L36 22.46l-1.68 1.68-3.66-1.22a1 1 0 0 0-1.03.28z" id="projects"/></symbol><symbol id="x" viewBox="0 0 32 32"><title>x</title><g id="close"><path class="cls-1" transform="rotate(-45 15.999 16.003)" d="M14 1.86h4v28.28h-4z"/><path class="cls-1" transform="rotate(-45 15.999 16.003)" d="M1.86 14h28.28v4H1.86z"/></g></symbol></svg>