<svg xmlns="http://www.w3.org/2000/svg" viewBox="0 0 588 338"><defs><style>.a,.b{fill:#1d1d1b;}.b{stroke:#fff;stroke-width:2px;}.b,.c{stroke-miterlimit:10;}.c{fill:#fff;stroke:#1d1d1b;}</style></defs><title>strikebase</title><path class="a" d="M159,221.76q-.88-1.85-1.63-3.51a14.31,14.31,0,0,0-1.75-2.92,7.34,7.34,0,0,0-2.41-2,7.82,7.82,0,0,0-3.6-.73,6.74,6.74,0,0,0-3,.63,5.94,5.94,0,0,0-2.12,1.71,7.42,7.42,0,0,0-1.24,2.48,10.5,10.5,0,0,0-.41,3,7.2,7.2,0,0,0,.39,2.39,8.07,8.07,0,0,0,1,2,10.43,10.43,0,0,0,1.49,1.68,9.91,9.91,0,0,0,1.66,1.24l12.08,7.06a33.87,33.87,0,0,1,7,5.11,25.83,25.83,0,0,1,4.26,5.31,18.82,18.82,0,0,1,2.12,5.09,24.73,24.73,0,0,1,.68,4.46,25.78,25.78,0,0,1-1.83,9.86,22.16,22.16,0,0,1-12.62,12.52,25.35,25.35,0,0,1-9.43,1.73,25,25,0,0,1-8.57-1.41,23.28,23.28,0,0,1-6.94-3.92,25.68,25.68,0,0,1-5.26-5.94,33.71,33.71,0,0,1-3.58-7.43l12.37-5.8q1.07,1.75,2.34,3.87a28.87,28.87,0,0,0,2.83,3.95,14.7,14.7,0,0,0,3.56,3,8.7,8.7,0,0,0,4.63,1.22,5.45,5.45,0,0,0,2.51-.61,6.84,6.84,0,0,0,2.09-1.66,8.9,8.9,0,0,0,1.46-2.39,7.2,7.2,0,0,0,.56-2.8,9.45,9.45,0,0,0-1.44-5.21,11.91,11.91,0,0,0-3.53-3.6l-13.1-7.75a30,30,0,0,1-5-3.56,24.67,24.67,0,0,1-3.95-4.41,20.19,20.19,0,0,1-2.61-5.19,18.66,18.66,0,0,1-.93-5.94,22.67,22.67,0,0,1,1.78-9.08,21.25,21.25,0,0,1,12.23-11.69,25.62,25.62,0,0,1,9.23-1.63,21.74,21.74,0,0,1,13,3.87,22.47,22.47,0,0,1,8,11.33Z"/><path class="a" d="M184.95,221.22,186.36,209l12.18-1.75v13.93H210l-.58,10.52H198.59v30.93A4.61,4.61,0,0,0,201,267a6.81,6.81,0,0,0,2.31.78,15.89,15.89,0,0,0,2.44.2,17.27,17.27,0,0,0,2.48-.15l1-.19v9.64a16.93,16.93,0,0,1-2.63.68q-1.31.24-3.31.46a44.47,44.47,0,0,1-4.77.22,18.36,18.36,0,0,1-4.75-.66,13.07,13.07,0,0,1-4.51-2.19,12,12,0,0,1-3.39-4.07,13.32,13.32,0,0,1-1.34-6.28V231.75h-7.84l.58-10.52Z"/><path class="a" d="M217,222.39l14-1.17v9A38.34,38.34,0,0,1,234,226.9a22.44,22.44,0,0,1,3.78-3.14,21.59,21.59,0,0,1,4.7-2.34,16.65,16.65,0,0,1,5.65-.92l.54,0,.54.07.63.1V237.4q-2.29-.68-4.63-1.41a15.75,15.75,0,0,0-4.73-.73,11.25,11.25,0,0,0-4.63,1,15.12,15.12,0,0,0-4.73,3.65v36.83l-14,1.17Z"/><path class="a" d="M257.53,222.39l14-1.17v55.53l-14,1.17Zm14.08-23v14l-14,0v-14Z"/><path class="a" d="M297.71,256.83v20.51h-14V204.27l14-1.75v37.07L312,221.22h15.15l-15.78,20.17,14.66,33-12.37,4.24-11.35-27.91Z"/><path class="a" d="M343.75,251.23a50.49,50.49,0,0,0,.34,5.65,29.07,29.07,0,0,0,1.14,5.55,13.3,13.3,0,0,0,2.12,4.21,4,4,0,0,0,3.21,1.68,4.26,4.26,0,0,0,3-1.32,15.23,15.23,0,0,0,2.39-3,22.38,22.38,0,0,0,1.63-3.12q.61-1.46.75-1.75l10.62,4a28.22,28.22,0,0,1-2.58,6.24,19.21,19.21,0,0,1-3.9,4.87,16.84,16.84,0,0,1-5.31,3.19,19.29,19.29,0,0,1-6.87,1.14,17.67,17.67,0,0,1-15.42-8.13,28.58,28.58,0,0,1-3.85-9.21,50.06,50.06,0,0,1-1.29-11.74,49.43,49.43,0,0,1,1.32-11.79,28,28,0,0,1,3.95-9.21,18.48,18.48,0,0,1,6.58-6,19.17,19.17,0,0,1,9.21-2.12,17.52,17.52,0,0,1,8.77,2.12,18.21,18.21,0,0,1,6.28,6,28.59,28.59,0,0,1,3.8,9.21,51.29,51.29,0,0,1,1.27,11.79l-.19.68a4,4,0,0,0-.15.56,2.52,2.52,0,0,0,0,.41Zm13.4-8.09a34.25,34.25,0,0,0-.37-5.16,15.92,15.92,0,0,0-1.14-4.12,7.24,7.24,0,0,0-2-2.73,4.71,4.71,0,0,0-3-1,4,4,0,0,0-2.51,1,9,9,0,0,0-2.19,2.73,16.88,16.88,0,0,0-1.54,4.12,21.68,21.68,0,0,0-.58,5.16Z"/><path class="a" d="M379.36,276.76V204.27l14-1.75v25.87a31.71,31.71,0,0,1,3.41-3.21,25,25,0,0,1,3.65-2.48,19.79,19.79,0,0,1,3.75-1.61,12.56,12.56,0,0,1,3.7-.58,10,10,0,0,1,5.26,1.51,12.6,12.6,0,0,1,4.33,4.9,31.62,31.62,0,0,1,2.95,8.89,82.3,82.3,0,0,1,0,26.62,30.06,30.06,0,0,1-3.14,9.16,14,14,0,0,1-5.07,5.36,13.45,13.45,0,0,1-6.84,1.73,16.18,16.18,0,0,1-3.48-.34,12.74,12.74,0,0,1-2.75-.93,10,10,0,0,1-2.12-1.34,11.07,11.07,0,0,1-3.68-5.72l-3.41,7.6Zm14-22.8a37,37,0,0,0,.58,7.23,14.57,14.57,0,0,0,1.56,4.48,6,6,0,0,0,2.19,2.29,5.17,5.17,0,0,0,2.48.66,5.27,5.27,0,0,0,4-1.56,9.87,9.87,0,0,0,2.19-4.21,28.61,28.61,0,0,0,.9-6.16q.17-3.51.17-7.4,0-3.56-.12-6.62a33.72,33.72,0,0,0-.58-5.33,9,9,0,0,0-1.44-3.58,3.2,3.2,0,0,0-2.73-1.31,8.25,8.25,0,0,0-2.87.61,28.71,28.71,0,0,0-3,1.34q-1.66.88-3.36,1.9Z"/><path class="a" d="M428,261.41a19.52,19.52,0,0,1,1.15-7,16.59,16.59,0,0,1,3.07-5.16,17.84,17.84,0,0,1,4.46-3.63,28,28,0,0,1,5.29-2.36,37.79,37.79,0,0,1,5.53-1.36,50.32,50.32,0,0,1,5.21-.61q0-1.95,0-3.82a14.79,14.79,0,0,0-.44-3.36A5.74,5.74,0,0,0,451,231.7a3,3,0,0,0-2.34-.92,4,4,0,0,0-2.17.56,5,5,0,0,0-1.51,1.46,6.91,6.91,0,0,0-.93,2,16.41,16.41,0,0,0-.46,2.26L430,234.72a15.88,15.88,0,0,1,2.39-6.94,14.6,14.6,0,0,1,4.46-4.36,17.8,17.8,0,0,1,5.7-2.27,29.55,29.55,0,0,1,6.16-.66,22.4,22.4,0,0,1,8.18,1.34,15.12,15.12,0,0,1,5.6,3.68A14.7,14.7,0,0,1,465.7,231a21.2,21.2,0,0,1,1,6.75v29a27.59,27.59,0,0,0,.22,3.41q.22,1.75.51,3.22.34,1.71.78,3.36l-13.64,1.17-1.56-6.87a13.11,13.11,0,0,1-2.17,2.87,16.79,16.79,0,0,1-6.5,4.09,11.25,11.25,0,0,1-3.65.63,10.6,10.6,0,0,1-5.21-1.29,12.27,12.27,0,0,1-4-3.6,17.31,17.31,0,0,1-2.58-5.46A24.9,24.9,0,0,1,428,261.41Zm13.74-.2a9.63,9.63,0,0,0,1.34,5.36,4.67,4.67,0,0,0,4.21,2,4,4,0,0,0,1.92-.51A11,11,0,0,0,451,267a20.39,20.39,0,0,0,1.75-1.66V249.67a15.38,15.38,0,0,0-4.33.58,8.69,8.69,0,0,0-3.48,1.95,9.06,9.06,0,0,0-2.31,3.58A15.58,15.58,0,0,0,441.76,261.22Z"/><path class="a" d="M486.18,260.92a9.06,9.06,0,0,0,1.51,3.36,8.5,8.5,0,0,0,2.48,2.29,7.69,7.69,0,0,0,4.19,1,12.88,12.88,0,0,0,2.22-.22,8.38,8.38,0,0,0,2.31-.75,5.68,5.68,0,0,0,1.8-1.39,3.21,3.21,0,0,0,.73-2.17,3.87,3.87,0,0,0-1.27-3,9.59,9.59,0,0,0-3-1.85l-11.74-4.77a14.72,14.72,0,0,1-7.23-5.92,18.28,18.28,0,0,1-2.51-9.86,16.06,16.06,0,0,1,5.85-12.79,18.46,18.46,0,0,1,6-3.29,22.48,22.48,0,0,1,7.06-1.12,20.81,20.81,0,0,1,6,.88,19.55,19.55,0,0,1,5.48,2.61,18.31,18.31,0,0,1,4.41,4.26,17.81,17.81,0,0,1,2.8,5.8l-11.5,3.56a13.72,13.72,0,0,0-1.46-3.36,9.49,9.49,0,0,0-2.19-2.31,5.43,5.43,0,0,0-3.41-1,9.87,9.87,0,0,0-2.19.24,5.83,5.83,0,0,0-1.92.8,4.61,4.61,0,0,0-1.39,1.41,3.72,3.72,0,0,0-.54,2,2.93,2.93,0,0,0,.51,1.68,5.79,5.79,0,0,0,1.27,1.34,11,11,0,0,0,1.58,1q.83.44,1.51.73l10,4.14a30,30,0,0,1,4.41,2.48,16.16,16.16,0,0,1,3.6,3.36,15.06,15.06,0,0,1,2.41,4.55,18.88,18.88,0,0,1,.88,6,17.24,17.24,0,0,1-1.7,7.89,16.94,16.94,0,0,1-4.48,5.6,19.23,19.23,0,0,1-6.28,3.36,23.27,23.27,0,0,1-7.11,1.12,26.89,26.89,0,0,1-7.65-1,18.48,18.48,0,0,1-5.85-2.85,15.84,15.84,0,0,1-4.09-4.48,19.31,19.31,0,0,1-2.34-5.89Z"/><path class="a" d="M534.94,251.23a50.49,50.49,0,0,0,.34,5.65,29.07,29.07,0,0,0,1.14,5.55,13.3,13.3,0,0,0,2.12,4.21,4,4,0,0,0,3.21,1.68,4.26,4.26,0,0,0,3-1.32,15.27,15.27,0,0,0,2.39-3,22.38,22.38,0,0,0,1.63-3.12q.61-1.46.75-1.75l10.62,4a28.22,28.22,0,0,1-2.58,6.24,19.2,19.2,0,0,1-3.9,4.87,16.85,16.85,0,0,1-5.31,3.19,19.3,19.3,0,0,1-6.87,1.14,17.67,17.67,0,0,1-15.42-8.13,28.56,28.56,0,0,1-3.85-9.21A50.06,50.06,0,0,1,521,249.58a49.48,49.48,0,0,1,1.31-11.79,28,28,0,0,1,3.95-9.21,18.48,18.48,0,0,1,6.58-6,19.16,19.16,0,0,1,9.21-2.12,17.53,17.53,0,0,1,8.77,2.12,18.21,18.21,0,0,1,6.28,6,28.59,28.59,0,0,1,3.8,9.21,51.23,51.23,0,0,1,1.27,11.79l-.19.68a4,4,0,0,0-.15.56,2.52,2.52,0,0,0,0,.41Zm13.4-8.09A34.25,34.25,0,0,0,548,238a16,16,0,0,0-1.14-4.12,7.25,7.25,0,0,0-2-2.73,4.71,4.71,0,0,0-3-1,4,4,0,0,0-2.51,1,9,9,0,0,0-2.19,2.73,16.92,16.92,0,0,0-1.53,4.12,21.68,21.68,0,0,0-.58,5.16Z"/><path class="a" d="M82.38,33.57V170.8c74,21,147.92-89.66,221.88-68.61C230.3,35.4,156.34,100.36,82.38,33.57Z"/><rect class="b" x="80.67" y="26.04" width="8" height="288.96"/><circle class="b" cx="85.06" cy="20.12" r="9.12"/><circle class="c" cx="138.21" cy="111.31" r="35.3"/><polygon class="a" points="147.7 107.74 138.36 107.74 140.15 87.91 128.43 114.09 137.77 114.09 135.99 133.92 147.7 107.74"/><path class="b" d="M146.33,316.85a76.46,76.46,0,0,0-123.32,0Z"/></svg>