<svg xmlns="http://www.w3.org/2000/svg" viewBox="0 0 32 32"><defs><style>.cls-1{fill:#1d1d1b;}.cls-2{fill:#0c0808;}</style></defs><title>dashboard</title><g id="dashboard"><path class="cls-1" d="M5.19,22a11,11,0,1,1,21.62,0h2A13,13,0,1,0,3.17,22Z"/><rect class="cls-1" x="15.5" y="10" width="1" height="2"/><rect class="cls-1" x="6" y="19.5" width="2" height="1"/><rect class="cls-1" x="7.5" y="15" width="1" height="2" transform="translate(-9.86 14.93) rotate(-60.01)"/><rect class="cls-1" x="10.5" y="12" width="1" height="2" transform="translate(-5.03 7.24) rotate(-29.99)"/><rect class="cls-1" x="22.63" y="15.5" width="2" height="1" transform="translate(-4.83 13.96) rotate(-29.99)"/><rect class="cls-1" x="23" y="19.5" width="2" height="1"/><path class="cls-2" d="M20.95,12a1,1,0,0,0-1.25.19L15,16.85A3,3,0,1,0,17.91,19l3.2-5.74A1,1,0,0,0,20.95,12Zm-6.13,9a1,1,0,1,1,1.16-.8A1,1,0,0,1,14.82,21Z"/></g></svg>