<svg id="selected_states" data-name="selected states" xmlns="http://www.w3.org/2000/svg" viewBox="0 0 48 48"><defs><style>.cls-1{fill:#fff;}.cls-2{fill:#1d1d1b;}</style></defs><title>dashboard-selected</title><g id="dashboard_copy_4" data-name="dashboard copy 4"><path class="cls-1" d="M24,45A21,21,0,1,1,45,24,21,21,0,0,1,24,45Z"/><rect fill="currentColor" fill="currentColor" x="23" y="5" width="2" height="4"/><rect fill="currentColor" fill="currentColor" x="23" y="39" width="2" height="4"/><rect fill="currentColor" fill="currentColor" x="5" y="23" width="4" height="2"/><rect fill="currentColor" fill="currentColor" x="39" y="23" width="4" height="2"/><rect fill="currentColor" fill="currentColor" x="14.5" y="7.28" width="2" height="4" transform="translate(-2.56 8.99) rotate(-30)"/><rect fill="currentColor" fill="currentColor" x="31.5" y="36.72" width="2" height="4" transform="translate(-15.01 21.44) rotate(-30)"/><rect fill="currentColor" fill="currentColor" x="7.28" y="31.5" width="4" height="2" transform="translate(-15 8.99) rotate(-29.99)"/><rect fill="currentColor" fill="currentColor" x="36.72" y="14.5" width="4" height="2" transform="translate(-2.56 21.43) rotate(-29.99)"/><rect fill="currentColor" fill="currentColor" x="8.28" y="13.5" width="2" height="4" transform="translate(-8.78 15.79) rotate(-60)"/><rect fill="currentColor" fill="currentColor" x="37.72" y="30.5" width="2" height="4" transform="translate(-8.78 49.79) rotate(-60)"/><rect fill="currentColor" fill="currentColor" x="13.5" y="37.72" width="4" height="2" transform="translate(-25.78 32.79) rotate(-60.01)"/><rect fill="currentColor" fill="currentColor" x="30.5" y="8.28" width="4" height="2" transform="translate(8.22 32.79) rotate(-60.01)"/><g id="needle_copy_4" data-name="needle copy 4"><path fill="currentColor" d="M24.82,27.68A4,4,0,0,1,22,20.85,4,4,0,0,1,23.37,20l9.42-5.62a1,1,0,0,1,1.37,1.37l-5.62,9.42a4,4,0,0,1-3.72,2.55Z"/></g></g><path fill="currentColor" d="M24,6A18,18,0,1,1,6,24,18,18,0,0,1,24,6m0-2A20,20,0,1,0,44,24,20,20,0,0,0,24,4Z"/></svg>
