<svg xmlns="http://www.w3.org/2000/svg" viewBox="0 0 48 48"><defs><style>.cls-1{fill:#29abe2;}.cls-2{fill:#1d1d1b;}</style></defs><title>organizations</title><g id="fills"><g id="organizations_copy_3" data-name="organizations copy 3"><path fill="currentColor" class="cls-1" d="M39,34h-.1L38,25.89A1,1,0,0,0,37,25H25V22h6a1,1,0,0,0,1-1V7a1,1,0,0,0-1-1H17a1,1,0,0,0-1,1V21a1,1,0,0,0,1,1h6v3H11a1,1,0,0,0-1,.89L9.1,34H9a5,5,0,1,0,2.07.46L11.9,27H23v7.1a5,5,0,1,0,2,0V27H36.1l.83,7.46A5,5,0,1,0,39,34Z"/></g></g><g id="exportables"><g id="organizations_copy_2" data-name="organizations copy 2"><path class="cls-2" d="M39,34h-.1L38,25.89A1,1,0,0,0,37,25H25V22h6a1,1,0,0,0,1-1V7a1,1,0,0,0-1-1H17a1,1,0,0,0-1,1V21a1,1,0,0,0,1,1h6v3H11a1,1,0,0,0-1,.89L9.1,34H9a5,5,0,1,0,2.07.46L11.9,27H23v7.1a5,5,0,1,0,2,0V27H36.1l.83,7.46A5,5,0,1,0,39,34ZM18,20V8H30V20H18ZM12,39a3,3,0,1,1-3-3A3,3,0,0,1,12,39Zm15,0a3,3,0,1,1-3-3A3,3,0,0,1,27,39Zm12,3a3,3,0,1,1,3-3A3,3,0,0,1,39,42Z"/></g></g></svg>
