<svg id="selected_states" data-name="selected states" xmlns="http://www.w3.org/2000/svg" viewBox="0 0 48 48"><defs><style>.cls-1{fill:#fff;}</style></defs><title>organizations-selected</title><g id="organizations_copy_4" data-name="organizations copy 4"><path class="cls-1" d="M39,34h-.1L38,25.89A1,1,0,0,0,37,25H25V22h6a1,1,0,0,0,1-1V7a1,1,0,0,0-1-1H17a1,1,0,0,0-1,1V21a1,1,0,0,0,1,1h6v3H11a1,1,0,0,0-1,.89L9.1,34H9a5,5,0,1,0,2.07.46L11.9,27H23v7.1a5,5,0,1,0,2,0V27H36.1l.83,7.46A5,5,0,1,0,39,34Z"/></g></svg>