<svg xmlns="http://www.w3.org/2000/svg" viewBox="0 0 32 32"><defs><style>.cls-1{fill:#1d1d1b;}</style></defs><title>pencil</title><g id="pencil"><rect class="cls-1" x="8.71" y="18.95" width="2" height="6.67" transform="translate(-12.91 13.4) rotate(-45)"/><rect class="cls-1" x="20.63" y="7.52" width="2" height="5.9" transform="translate(-1.07 18.36) rotate(-45)"/><path class="cls-1" d="M5,28a1,1,0,0,1-1-1.24L5.6,20.47A1,1,0,0,1,5.86,20L21.58,4.29A1,1,0,0,1,22.29,4h0a1,1,0,0,1,.71.29L27.71,9a1,1,0,0,1,0,1.41L12,26.14a1,1,0,0,1-.46.26L5.24,28A1,1,0,0,1,5,28Zm2.47-6.77-1.1,4.4,4.4-1.1L25.59,9.71l-3.3-3.3Z"/></g></svg>