<svg id="selected_states" data-name="selected states" xmlns="http://www.w3.org/2000/svg" viewBox="0 0 48 48"><defs><style>.cls-1{fill:#fff;}.cls-2{fill:#1d1d1b;}</style></defs><title>people-selected</title><g id="people_straight_copy_3" data-name="people straight copy 3"><path class="cls-1" d="M14,43H34V34l.56-1.11h0L35,33.94a4.6,4.6,0,0,0-.13-1.05H46l-1-8.95c0-3.46-3.31-4.24-5.94-4.87l-.2,0a7,7,0,1,0-9.73,0l-.18,0a7,7,0,0,0-9.91,0l-.18,0a7,7,0,1,0-9.73,0l-.2,0C6.31,19.7,3,20.48,3,23.94L2,32.89H13.13A4.6,4.6,0,0,0,13,33.94l-1,8.95"/><path fill="currentColor" d="M24,18a6,6,0,0,1,2.55,11.42C29.72,30.49,34,30.48,34,34l1,9H13l1-9c0-3.52,4.28-3.51,7.45-4.58A6,6,0,0,1,24,18m0-2a8,8,0,0,0-6.65,12.44c-2.47.68-5.29,1.92-5.35,5.44l-1,8.9A2,2,0,0,0,13,45H35a2,2,0,0,0,2-2.22l-1-8.9c-.06-3.52-2.88-4.76-5.35-5.44A8,8,0,0,0,24,16Z"/><rect fill="currentColor" x="5.46" y="29" width="6.08" height="2" transform="translate(-22.49 33.45) rotate(-80.54)"/><rect fill="currentColor" x="38.5" y="26.96" width="2" height="6.08" transform="translate(-4.39 6.9) rotate(-9.46)"/><rect fill="currentColor" x="15.46" y="39" width="6.08" height="2" transform="translate(-24 51.67) rotate(-80.54)"/><rect fill="currentColor" x="28.5" y="36.96" width="2" height="6.08" transform="translate(-6.17 5.39) rotate(-9.46)"/></g></svg>
