<svg xmlns="http://www.w3.org/2000/svg" viewBox="0 0 32 32"><defs><style>.cls-1{fill:#1d1d1b;}</style></defs><title>people</title><g id="person_copy" data-name="person copy"><path class="cls-1" d="M21,12a4.5,4.5,0,1,1,4.5-4.5A4.5,4.5,0,0,1,21,12Zm0-8a3.5,3.5,0,1,0,3.5,3.5A3.5,3.5,0,0,0,21,4Z"/><path class="cls-1" d="M11,18.5A4.5,4.5,0,1,1,15.5,14,4.5,4.5,0,0,1,11,18.5Zm0-8A3.5,3.5,0,1,0,14.5,14,3.5,3.5,0,0,0,11,10.5Z"/><path class="cls-1" d="M18.5,28.5H3.5V20a4.48,4.48,0,0,1,4-4.45l.32,0,.16.27a3.47,3.47,0,0,0,6,0l.16-.27.32,0a4.48,4.48,0,0,1,4,4.45Zm-14-1h13V20a3.48,3.48,0,0,0-2.83-3.42,4.47,4.47,0,0,1-7.33,0A3.48,3.48,0,0,0,4.5,20Z"/><path class="cls-1" d="M28.5,22h-11V20a3.48,3.48,0,0,0-3.13-3.46l-.78-.08.41-.67A3.44,3.44,0,0,0,14.5,14a3.48,3.48,0,0,0-.55-1.87l-.15-.23.11-.25A4.52,4.52,0,0,1,17.53,9l.32,0,.16.27a3.47,3.47,0,0,0,6,0L24.16,9l.32,0a4.48,4.48,0,0,1,4,4.45Zm-10-1h9V13.5a3.48,3.48,0,0,0-2.83-3.42,4.47,4.47,0,0,1-7.33,0,3.52,3.52,0,0,0-2.4,1.75A4.46,4.46,0,0,1,15.5,14a4.4,4.4,0,0,1-.33,1.67A4.48,4.48,0,0,1,18.5,20Z"/><path class="cls-1" d="M14.41,16.9l-.76-.65.11-.13.2-.28.84.54c-.08.12-.16.24-.25.35Z"/></g></svg>