<svg id="exportables" xmlns="http://www.w3.org/2000/svg" viewBox="0 0 48 48"><defs><style>.cls-1{fill:#1d1d1b;}</style></defs><title>people</title><g id="people_straight_copy" data-name="people straight copy"><rect class="cls-1" x="5.46" y="29" width="6.08" height="2" transform="translate(-22.49 33.45) rotate(-80.54)"/><rect class="cls-1" x="38.5" y="26.96" width="2" height="6.08" transform="translate(-4.39 6.9) rotate(-9.46)"/><path class="cls-1" d="M45,23.94c0-3.46-3.31-4.24-5.94-4.87l-.2,0a7,7,0,1,0-9.73,0l-.18,0a7,7,0,0,0-9.91,0l-.18,0a7,7,0,1,0-9.73,0l-.2,0C6.31,19.7,3,20.48,3,23.94L2,32.89l2,.22,1-9A1,1,0,0,0,5,24c0-1.74,1.41-2.27,4.4-3,.79-.19,1.6-.38,2.36-.64a1,1,0,0,0,.11-1.85,5,5,0,1,1,4.25,0,1,1,0,0,0,.11,1.85c.5.17,1,.31,1.54.44A7,7,0,0,0,17,24a7,7,0,0,0,2.13,5l-.2,0c-2.63.63-5.9,1.42-5.94,4.87l-1,8.95,2,.22,1-9A1,1,0,0,0,15,34c0-1.74,1.41-2.27,4.4-3,.79-.19,1.6-.38,2.36-.64a1,1,0,0,0,.11-1.85,5,5,0,1,1,4.25,0,1,1,0,0,0,.11,1.85c.76.26,1.58.45,2.36.64,3,.72,4.4,1.25,4.4,3a1,1,0,0,0,0,.11l1,9,2-.22-1-8.95c0-3.46-3.31-4.24-5.94-4.87l-.2,0A7,7,0,0,0,31,24a7,7,0,0,0-.78-3.19c.52-.13,1-.27,1.54-.44a1,1,0,0,0,.11-1.85,5,5,0,1,1,4.25,0,1,1,0,0,0,.11,1.85c.76.26,1.58.45,2.36.64,3,.72,4.4,1.25,4.4,3a1,1,0,0,0,0,.11l1,9,2-.22Z"/><rect class="cls-1" x="15.46" y="39" width="6.08" height="2" transform="translate(-24 51.67) rotate(-80.54)"/><rect class="cls-1" x="28.5" y="36.96" width="2" height="6.08" transform="translate(-6.17 5.39) rotate(-9.46)"/></g></svg>