<svg xmlns="http://www.w3.org/2000/svg" viewBox="0 0 32 32"><defs><style>.cls-1{fill:#1d1d1b;}</style></defs><title>projects</title><g id="projects_copy_2" data-name="projects copy 2"><g id="brush_copy_2" data-name="brush copy 2"><path class="cls-1" d="M24.72,14.53,18.47,8.28,22.59,2.5l7.91,7.91Zm-5-6.36,5.06,5.06L29,10.28,22.72,4Z"/><rect class="cls-1" x="25.05" y="8.78" width="3" height="1" transform="translate(1.21 21.49) rotate(-45)"/><rect class="cls-1" x="23.63" y="7.37" width="3" height="1" transform="translate(1.8 20.08) rotate(-45)"/><rect class="cls-1" x="22.22" y="5.95" width="3" height="1" transform="translate(2.38 18.66) rotate(-45)"/></g><path class="cls-1" d="M23,28.05,11.32,15.4A4.52,4.52,0,0,1,6,14.6L4.63,13.19A4.47,4.47,0,0,1,4,7.6l.35-.55L6.84,9.72l2.22.11L8.95,7.61,6.28,5.14l.55-.35a4.47,4.47,0,0,1,5.58.62l1.41,1.41a4.53,4.53,0,0,1,.8,5.27L27.28,23.78ZM11.5,14.12,23,26.61l2.8-2.8L13.34,12.27l.23-.35a3.52,3.52,0,0,0-.45-4.39L11.71,6.12A3.47,3.47,0,0,0,8,5.33l2,1.82.18,3.73L6.38,10.7l-1.82-2a3.47,3.47,0,0,0,.78,3.74l1.41,1.41a3.52,3.52,0,0,0,4.39.45Z"/><path class="cls-1" d="M19,17.51l-3.68-3.4L17,12.43a2.5,2.5,0,0,1,.32-3.15l1.77-1.77,6.36,6.36-1.77,1.77a2.48,2.48,0,0,1-1.77.73h0A2.48,2.48,0,0,1,20.57,16Zm-2.23-3.42,2.21,2,1.54-1.54.35.35a1.49,1.49,0,0,0,1.06.44h0A1.49,1.49,0,0,0,23,14.94l1.06-1.06-5-5L18.06,10a1.5,1.5,0,0,0,0,2.12l.35.35Z"/><path class="cls-1" d="M9.22,27.31,5.69,23.78l7.66-7.66,3.4,3.68ZM7.1,23.78,9.22,25.9l6.13-6.13-2-2.21Z"/></g></svg>