<svg xmlns="http://www.w3.org/2000/svg" viewBox="0 0 48 48"><defs><style>.cls-1{fill:#29abe2;}.cls-2{fill:#1d1d1b;}</style></defs><title>projects</title><g id="fills"><g id="projects_copy" data-name="projects copy"><path fill="currentColor" class="cls-1" d="M34.29,26.24a1,1,0,0,0,1-.24l2.79-2.79,7-5.62a1,1,0,0,0,.08-1.49L33.9,4.79a1,1,0,0,0-1.49.08l-5.62,7L24,14.69a1,1,0,0,0-.24,1L25,19.34l-.81.75L22,17.89l.6-3a1,1,0,0,0-.09-.64L19.65,8.58a1,1,0,0,0-.58-.5L12.71,6a1,1,0,0,0-1,.24L8.86,9A1,1,0,0,0,9,10.55l4.53,3.24v2.73H10.79L7.55,12A1,1,0,0,0,6,11.86L3.2,14.69a1,1,0,0,0-.24,1l2.12,6.36a1,1,0,0,0,.5.58l5.66,2.83a1,1,0,0,0,.64.09l3-.6,1.94,1.94L5.64,37.29a1,1,0,0,0,0,1.44l5.66,5.66a1,1,0,0,0,.71.29h0a1,1,0,0,0,.71-.32L23.1,33.17,34.31,44.38a1,1,0,0,0,1.41,0l5.66-5.66a1,1,0,0,0,0-1.41L29.91,25.84l.75-.81ZM12,42.24,7.76,38l10.48-9.73,3.44,3.44ZM36,22.46l-1.68,1.68-3.66-1.22a1,1,0,0,0-1,.27l-1.14,1.22-2.92-2.92,1.22-1.14a1,1,0,0,0,.27-1l-1.22-3.66L27.54,14"/></g></g><g id="exportables"><g id="projects"><path class="cls-2" d="M34.29,26.24a1,1,0,0,0,1-.24l2.79-2.79,7-5.62a1,1,0,0,0,.08-1.49L33.9,4.79a1,1,0,0,0-1.49.08l-5.62,7L24,14.69a1,1,0,0,0-.24,1L25,19.34l-.81.75L22,17.89l.6-3a1,1,0,0,0-.09-.64L19.65,8.58a1,1,0,0,0-.58-.5L12.71,6a1,1,0,0,0-1,.24L8.86,9A1,1,0,0,0,9,10.55l4.53,3.24v2.73H10.79L7.55,12A1,1,0,0,0,6,11.86L3.2,14.69a1,1,0,0,0-.24,1l2.12,6.36a1,1,0,0,0,.5.58l5.66,2.83a1,1,0,0,0,.64.09l3-.6,1.94,1.94L5.64,37.29a1,1,0,0,0,0,1.44l5.66,5.66a1,1,0,0,0,.71.29h0a1,1,0,0,0,.71-.32L23.1,33.17,34.31,44.38a1,1,0,0,0,1.41,0l5.66-5.66a1,1,0,0,0,0-1.41L29.91,25.84l.75-.81ZM33.28,7l1.33,1.33-2.83,2.83,1.41,1.41L36,9.74l1.41,1.41L34.61,14,36,15.39l2.83-2.83L40.26,14l-2.83,2.83,1.41,1.41,2.83-2.83L43,16.72l-5.5,4.4-8.63-8.63ZM12,42.24,7.76,38l10.48-9.73,3.44,3.44Zm23.07,0L23.78,31,19,26.22l-3-3a1,1,0,0,0-.71-.29l-.2,0-3.2.64L6.85,21,5.05,15.66l1.56-1.56,2.85,4a1,1,0,0,0,.81.42h4.24a1,1,0,0,0,1-1V13.27a1,1,0,0,0-.42-.81l-4-2.85,1.56-1.56L18,9.85l2.49,5L19.9,18a1,1,0,0,0,.27.9l3.26,3.26,4.38,4.38L39.26,38ZM29.63,23.2l-1.14,1.22-2.92-2.92,1.22-1.14a1,1,0,0,0,.27-1l-1.22-3.66L27.54,14,36,22.46l-1.68,1.68-3.66-1.22A1,1,0,0,0,29.63,23.2Z"/></g></g></svg>
