<svg id="selected_states" data-name="selected states" xmlns="http://www.w3.org/2000/svg" viewBox="0 0 48 48"><defs><style>.cls-1{fill:#fff;}</style></defs><title>projects-selected</title><g id="projects_copy_2" data-name="projects copy 2"><polygon class="cls-1" points="20.88 18.22 21.59 14.69 18.76 9.03 12.39 6.91 9.56 9.74 14.52 13.27 14.52 17.52 10.27 17.52 6.74 12.56 3.91 15.39 6.03 21.76 11.69 24.59 15.22 23.88 35.02 43.68 40.68 38.02 20.88 18.22"/><path class="cls-1" d="M44.86,16.45,33.55,5.14A.49.49,0,0,0,33.17,5a.5.5,0,0,0-.36.19l-5.64,7L24.35,15a.5.5,0,0,0-.12.51l1.31,3.94L6,37.65a.5.5,0,0,0,0,.72L11.63,44a.5.5,0,0,0,.35.15h0a.5.5,0,0,0,.36-.16L30.51,24.46l3.94,1.31a.5.5,0,0,0,.51-.12l2.79-2.79,7.07-5.66a.5.5,0,0,0,0-.74Z"/><line class="cls-1" x1="37.99" y1="23.01" x2="26.99" y2="12.01"/><rect fill="currentColor" x="31.49" y="9.74" width="2" height="15.56" transform="translate(-2.87 28.1) rotate(-45)"/><line class="cls-1" x1="32.49" y1="11.86" x2="36.67" y2="7.67"/><rect fill="currentColor" x="31.62" y="8.76" width="5.92" height="2" transform="translate(3.22 27.31) rotate(-45)"/><line class="cls-1" x1="35.31" y1="14.69" x2="39.5" y2="10.5"/><rect fill="currentColor" x="34.45" y="11.59" width="5.92" height="2" transform="translate(2.05 30.14) rotate(-45)"/><line class="cls-1" x1="38.14" y1="17.51" x2="42.33" y2="13.33"/><rect fill="currentColor" x="37.28" y="14.42" width="5.92" height="2" transform="translate(0.88 32.97) rotate(-45)"/><polygon fill="currentColor" points="17.92 26.57 23.78 21.13 22.37 19.71 16.5 25.16 17.92 26.57"/><polygon fill="currentColor" points="30.29 27.63 28.88 26.22 23.43 32.08 24.84 33.5 30.29 27.63"/></g></svg>
